<svg xmlns="http://www.w3.org/2000/svg" viewBox="-12 -10 444 178" role="img" aria-label="VINT.AI logo">
	<defs>
		<linearGradient id="vint-emblem-gradient" x1="0%" y1="0%" x2="100%" y2="100%">
			<stop offset="0" stop-color="#7d141d"></stop>
			<stop offset="1" stop-color="#ff1e27"></stop>
		</linearGradient>
	</defs>
	<path d="M104.6 41.3a52.2 52.2 0 0 0-3.5-11.2A51.1 51.1 0 0 0 44.3 1a49.6 49.6 0 0 0-5.7 1.5 49.1 49.1 0 0 0-7.9 2.7A51.6 51.6 0 0 0 6.3 77a53.7 53.7 0 0 0 4.1 6.4 57 57 0 0 0 5 5.7 51.7 51.7 0 0 0 55.3 11.5l3.3-1.4 3-1.5a50.9 50.9 0 0 0 5.8-3.8l2.7-2.1 1.2-1.1 1.1-.9 2-1.8.7-.6.6-.7 1.8-2a48.5 48.5 0 0 0 5.9-8.3 50.4 50.4 0 0 0 5.6-14.7 51.6 51.6 0 0 0 .2-20.4zM87.1 88.6l-1.2 1.1-1.2 1.1-2.6 2.1a49.5 49.5 0 0 1-5.7 3.6l-3 1.5-3.2 1.3-4.9 1.6h-.5a50.9 50.9 0 0 1-20.3.1 51.8 51.8 0 0 1-11.1-3.6A50.5 50.5 0 0 1 22.9 91a52 52 0 0 1-9.1-9.4 50.3 50.3 0 0 1-3.7-5.7c-.6-1-1.1-2-1.6-3.1s-1-2.1-1.3-3.2a50.6 50.6 0 0 1 8.6-50.8l.8-.8.5-.6.6-.6 1.2-1.1 2.4-2.1A50.5 50.5 0 0 1 62.4 3.2a48.5 48.5 0 0 1 14.7 5.2 47 47 0 0 1 8.3 5.8l2 1.8.7.6.6.7 1.8 2a49.7 49.7 0 0 1 11.3 22.9 50.8 50.8 0 0 1-.1 20.2 51.6 51.6 0 0 1-3.6 11 50.2 50.2 0 0 1-6.6 10.5l-2.1 2.4zm-44.9 13a50.1 50.1 0 0 1-13.7-5 51.8 51.8 0 0 1-6.2-4 55.2 55.2 0 0 1-5.5-4.8 49.9 49.9 0 0 1-11-53.2c.4-1.1.9-2.1 1.3-3.1l.6-1.3a50.2 50.2 0 0 0-3.4 11 51.3 51.3 0 0 0 2.4 28.5c.4 1.1.9 2.2 1.4 3.2s1 2.1 1.6 3.1a50.6 50.6 0 0 0 3.7 5.8 51.5 51.5 0 0 0 9.2 9.5 50.9 50.9 0 0 0 10.7 6.5 51 51 0 0 0 28.7 3.9 50.3 50.3 0 0 1-19.8-.1zm61.9-39.9a50.2 50.2 0 0 1-5.5 14.7 48.4 48.4 0 0 1-5.8 8.3l-1.8 2-.6.7-.7.6-1.9 1.7h.2l2.3-2.4 2.1-2.5A51.3 51.3 0 0 0 98.9 74a51.4 51.4 0 0 0 3.2-31.6 49.6 49.6 0 0 0-2.5-8.2 49.4 49.4 0 0 0-3.1-6.5 48.7 48.7 0 0 0-5.9-8.3l-1.8-2-.6-.7-.7-.6-2-1.8A49.9 49.9 0 0 0 77.3 8a49.3 49.3 0 0 0-6.5-3.2 49.8 49.8 0 0 0-8.2-2.6A52.2 52.2 0 0 0 49.9 1a50.8 50.8 0 0 1 22.7 3.2l3.2 1.3 3.1 1.6a50.1 50.1 0 0 1 5.7 3.7l2.6 2.1 1.2 1.1 1.2 1.1 2.3 2.3 2.1 2.4a50.4 50.4 0 0 1 6.5 10.5 51.6 51.6 0 0 1 3.6 11 51.1 51.1 0 0 1 0 20.3z" fill="url(#vint-emblem-gradient)" transform="translate(-7.056 4.043) scale(1.49548)"></path>
	<path d="M129.641 0q.876 0 .876 3.069l.88-.438v1.755l.875-.438h.438l-1.751 6.575q.984 0 1.313-2.189h.438v.876q-.438 2.301-.438 2.63.438.877.438 1.318l-.876 2.193.438.876-.438.876.438.88q-.438 2.192-.875 2.192.437.876.437 1.314l.876-.438v.438q-.876 6.579-2.63 10.965h1.317q-4.828 12.83-6.58 16.227-3.727 5.812-4.827 9.207-7.672 14.696-15.344 28.068-3.402 6.033-10.528 16.669.438 0 .438.438-.659 0-1.755.876l.438.879q0 .876-.876.876 0-.438-.438-.438l-.876 1.755h.438q0-.438.438-.438v.876q-.876 0-2.63 2.63v-.875h-.439q0 .547-1.317 2.631h.438q0-.438.438-.438v.438q0 .876-.876.876 0-.438-.438-.438l-.438.876h.438q-1.096 2.851-2.193 3.068 0-.434-.438-.434 0 2.19-.88 2.19 0-.438-.437-.438 0 .438-.438.438l.438.88v.437q-1.097 0-1.755 1.755l-.876.438q0-.438-.438-.438l.438.876q-5.812 7.017-6.58 7.017h-.437l.438.88q-27.08 30.149-33.33 31.574-1.535 1.423-7.018 2.631-10.965-2.522-10.965-8.33-1.205 0-2.63-14.034 0-23.686 1.754-37.72h-.438q.876-3.507 3.07-18.417-.439 0-.439-.442 1.097-.108 4.387-17.978l3.944-14.034-.438-.88q1.755-1.096 3.51-9.648 8.77-22.148 8.77-23.24h1.758v.875h.876l.876-.441q0 .77 3.948 1.317 0 .438.438.438l.875-.438q3.949 2.852 3.949 5.7 4.386 5.153 4.386 9.21.438 0 .438.441 0 .218-2.193 4.824.438 0 .438.438-.547 0-6.138 14.472-4.828 14.585-5.266 18.42-1.313 0-2.193 7.456-.438 0-1.751 5.261l.438.88q-7.455 23.353-7.455 49.12l.875-.438v.875h.438q5.704-3.068 28.069-28.068 0-.659 11.403-15.351 4.386-5.262 9.648-13.593 2.193-.771 2.193-3.948l.88.438q0-.768 2.63-3.949v-.438l.876.438-.438-.875q1.314-2.74 3.948-5.262 0 .438.438.438l-.438-.876q.876-1.426.876-2.193h.438l.876.438q.88-3.294.88-3.949l.875.438q.112-.876.88-.876l-.442-.875q.112-1.21 2.193-2.193v-1.76l.88.442-.438-.875v-.442q1.751 0 1.751-3.069l.88.438-.438-.876q3.068-2.414 3.068-3.51-.437 0-.437-.438.984 0 2.193-4.386.875 0 .875-.876-.438 0-.438-.438 2.081-.88 5.262-9.21 1.318-1.096 8.335-16.227l-.442-.876q2.193-3.069 2.193-3.948l-.876.438v-.438q2.194-5.92 2.631-11.403zM87.977 39.91q0 .437.438.437 0-.438.438-.438l.441.876v.441q0 .876-.88.876h-.875q-.88 0-.88-.876v-.879q.442 0 1.318-.438zm-7.455 52.187v1.318q.876 0 .876-.88zm-1.314 2.194q0 .437-.438 1.317h.438q.876-1.097.876-1.317h-.876z" fill="#be4a4a"></path>
	<path d="M219.682 36h8.83l-20.878 52.383h-8.755L178 36h8.905l16.389 42.28zm11.686 52.383V36h8.231v52.383h-8.231zM282.789 36h8.157v52.383h-6.81l-29.035-37.94v37.94h-8.157V36h6.81l29.035 37.94V36zm56.436 0v7.334h-18.41v45.05h-8.156v-45.05h-18.484V36h45.05zm6.896 52.907c-2.919 0-5.164-2.245-5.164-5.089 0-2.768 2.245-5.013 5.164-5.013s5.163 2.245 5.163 5.013c0 2.844-2.245 5.089-5.163 5.089zm49.775-.524-5.014-12.721h-24.92l-5.013 12.721h-8.456L373.22 36h10.402l20.73 52.383h-8.457zM368.73 68.478h19.382l-9.653-24.77zm38.326 19.905V36h8.232v52.383h-8.232z" fill="#ffffff"></path>
	<path d="M209.522 128.537c-3.97 0-6.876-1.897-7.523-5.127l2.732-.646c.431 2.22 2.356 3.5 4.884 3.5 2.033 0 3.982-.835 3.942-3.123-.027-2.26-2.476-2.88-5.071-3.593-2.948-.807-5.895-1.736-5.895-5.234 0-3.538 2.921-5.314 6.38-5.314 3.349 0 6.363 1.412 7.076 4.682l-2.597.66c-.472-2.113-2.232-3.055-4.36-3.055-1.91 0-3.808.835-3.808 3 0 1.966 2.126 2.544 4.534 3.189 3.029.821 6.5 1.764 6.5 5.584 0 3.848-3.23 5.477-6.794 5.477zm22.572 0c-5.396 0-9.512-3.715-9.512-9.782 0-6.056 4.116-9.755 9.512-9.755 5.368 0 9.498 3.7 9.498 9.755 0 6.067-4.13 9.782-9.498 9.782zm0-2.517c3.808 0 6.821-2.637 6.821-7.265 0-4.588-3.013-7.225-6.821-7.225-3.822 0-6.848 2.637-6.848 7.225 0 4.629 3.026 7.265 6.848 7.265zm19.826-.162h6.5v2.423h-9.176v-19.026h2.677v16.603zm25.105-16.603h2.824l-6.998 19.026h-2.798l-6.972-19.026h2.812l5.57 15.742zm19.988 2.408h-7.616v5.92h6.714v2.395h-6.714v5.88h7.616v2.423h-10.347v-19.028h10.347v2.412zm18.059 16.618v-19.026h6.269c5.853 0 8.827 3.93 8.827 9.5 0 5.61-2.973 9.526-8.827 9.526h-6.269zm2.677-2.423h3.486c4.157 0 6.134-2.758 6.134-7.103 0-4.32-1.977-7.092-6.136-7.092h-3.484v14.195zm32.447 2.423-1.586-4.441h-8.504l-1.588 4.44h-2.785l7.01-19.025h3.23l7.009 19.026h-2.785zm-9.256-6.782h6.835l-3.417-9.593zm28.991-12.244v2.408h-4.818v16.618h-2.65v-16.618h-4.83v-2.408h12.298zm19.114 19.026-1.589-4.441h-8.503l-1.587 4.44h-2.785l7.01-19.025h3.228l7.01 19.026h-2.784zm-9.257-6.782h6.835l-3.417-9.593z" fill="#be4a4a"></path>
</svg>
